<?xml version="1.0" encoding="utf-8"?>
<svg xmlns="http://www.w3.org/2000/svg" viewBox="159.01 243.11 236.32 319.07" width="236.32px" height="319.07px">
  <defs>
    <clipPath id="clippath">
      <rect class="cls-1" x="159.01" y="243.11" width="236.32" height="319.07"/>
    </clipPath>
    <clipPath id="clippath-1">
      <rect class="cls-1" x="159.01" y="243.11" width="236.32" height="319.07"/>
    </clipPath>
    <style>
      .cls-1 {
        fill: none;
      }

      .cls-2 {
        fill: currentColor;
      }

      .cls-3 {
        clip-path: url(#clippath-1);
      }

      .cls-4 {
        clip-path: url(#clippath);
      }
    </style>
  </defs>
  <path id="Tracé_54" data-name="Tracé 54" class="cls-2" d="M214.38,317.3h-22.72v3.25h22.72v-3.25ZM212.31,330.72h-22.72v3.25h22.71v-3.25ZM203.8,307.44h-3.36l-9.81,36.39h3.35l9.81-36.39ZM213.35,307.44h-3.36l-9.81,36.39h3.35l9.81-36.39Z" transform="matrix(1, 0, 0, 1, 1.4210854715202004e-14, 0)"/>
  <path id="Tracé_55" data-name="Tracé 55" class="cls-2" d="M200.42,317.3h22.71v3.25h-22.71v-3.25ZM202.48,330.72h22.72v3.25h-22.71v-3.25ZM211,307.44h3.35l9.81,36.39h-3.35l-9.81-36.39ZM201.45,307.44h3.35l9.81,36.39h-3.36l-9.81-36.39Z" transform="matrix(1, 0, 0, 1, 1.4210854715202004e-14, 0)"/>
  <path id="Tracé_56" data-name="Tracé 56" class="cls-2" d="M294.86,562.17h4.28v-59.98h-4.28v59.98Z" transform="matrix(1, 0, 0, 1, 1.4210854715202004e-14, 0)"/>
  <g id="Groupe_32" data-name="Groupe 32" transform="matrix(1, 0, 0, 1, 1.4210854715202004e-14, 0)">
    <path id="Tracé_57" data-name="Tracé 57" class="cls-2" d="M298.53,500.84v-2.88l.31-11.75h-3.67l.31,11.69v2.94l-.31,11.81h3.67l-.31-11.81ZM310.22,497.72l-11.93.31h-2.51l-12-.31v3.43l11.94-.31h2.69l11.81.31v-3.43ZM299.08,499.37l-2.02-2.08-8.14-8.51-2.57,2.57,8.51,8.08,2.08,2.08,8.14,8.57,2.57-2.57-8.57-8.14ZM305.14,488.84l-8.2,8.69-1.78,1.78-8.75,8.26,2.45,2.45,8.2-8.69,1.96-1.9,8.57-8.14-2.45-2.45Z"/>
  </g>
  <g id="Groupe_33" data-name="Groupe 33" transform="matrix(1, 0, 0, 1, 1.4210854715202004e-14, 0)">
    <path id="Tracé_58" data-name="Tracé 58" class="cls-2" d="M372.07,243.11l-12.51,20.75h4.15l10.43-17.28,10.38,17.28h4.15l-12.45-20.75h-4.15Z"/>
  </g>
  <g id="Groupe_34" data-name="Groupe 34" transform="matrix(1, 0, 0, 1, 1.4210854715202004e-14, 0)">
    <path id="Tracé_59" data-name="Tracé 59" class="cls-2" d="M375.3,283.06l-11.59-19.2h-4.15l12.51,20.75h4.15l12.45-20.75h-4.15l-11.53,19.2h2.31Z"/>
  </g>
  <g class="cls-4" transform="matrix(1, 0, 0, 1, 1.4210854715202004e-14, 0)">
    <g id="Groupe_37" data-name="Groupe 37">
      <g id="Groupe_35" data-name="Groupe 35">
        <path id="Tracé_60" data-name="Tracé 60" class="cls-2" d="M377.61,263.86c.03.99-.3,1.96-.92,2.74-.64.76-1.6,1.18-2.59,1.12-.99.06-1.94-.36-2.57-1.12-.61-.78-.92-1.75-.89-2.74h-3.29c-.07,1.82.63,3.59,1.93,4.87,1.29,1.25,3.02,1.93,4.81,1.88,1.8.05,3.54-.63,4.84-1.88,1.31-1.27,2.03-3.04,1.96-4.87h-3.29Z"/>
      </g>
      <g id="Groupe_36" data-name="Groupe 36">
        <path id="Tracé_61" data-name="Tracé 61" class="cls-2" d="M377.61,263.86c.03-.99-.3-1.96-.92-2.74-.64-.76-1.6-1.18-2.59-1.13-.99-.06-1.94.36-2.57,1.13-.61.78-.92,1.75-.89,2.74h-3.29c-.07-1.82.63-3.59,1.93-4.87,1.29-1.25,3.02-1.93,4.81-1.88,1.8-.05,3.54.63,4.84,1.88,1.32,1.27,2.03,3.04,1.96,4.87h-3.29Z"/>
      </g>
    </g>
  </g>
  <path id="Tracé_63" data-name="Tracé 63" class="cls-2" d="M315.55,346.87h-3.74v24.5h3.74v-24.5ZM302.59,360.88h22.19v-3.51h-22.19v3.51Z" transform="matrix(1, 0, 0, 1, 1.4210854715202004e-14, 0)"/>
  <path id="Tracé_64" data-name="Tracé 64" class="cls-2" d="M328.56,336.38h-3.75v24.5h3.75v-24.5ZM315.59,350.39h22.2v-3.51h-22.2v3.51Z" transform="matrix(1, 0, 0, 1, 1.4210854715202004e-14, 0)"/>
  <g id="Groupe_38" data-name="Groupe 38" transform="matrix(1, 0, 0, 1, 1.4210854715202004e-14, 0)">
    <path id="Tracé_65" data-name="Tracé 65" class="cls-2" d="M373.75,521.87v11.35h-6.88v3.08h6.88v25.87h3.59v-25.87h6.88v-3.08h-6.88v-11.35h-3.59Z"/>
  </g>
  <g class="cls-3" transform="matrix(1, 0, 0, 1, 1.4210854715202004e-14, 0)">
    <g id="Groupe_42" data-name="Groupe 42">
      <g id="Groupe_39" data-name="Groupe 39">
        <path id="Tracé_66" data-name="Tracé 66" class="cls-2" d="M365.59,511.19c2.65-.04,5.19,1.02,7.03,2.93,1.91,1.84,2.96,4.38,2.93,7.03.04,2.64-1.02,5.18-2.93,7.01-1.85,1.89-4.39,2.94-7.03,2.9-2.64.04-5.17-1.01-7.01-2.9-1.89-1.83-2.94-4.37-2.9-7.01-.04-2.64,1.01-5.19,2.9-7.03,1.83-1.91,4.37-2.97,7.01-2.93"/>
      </g>
      <g id="Groupe_40" data-name="Groupe 40">
        <path id="Tracé_67" data-name="Tracé 67" class="cls-2" d="M385.37,511.19c2.65-.04,5.19,1.02,7.03,2.93,1.91,1.84,2.96,4.38,2.93,7.03.04,2.64-1.02,5.18-2.93,7.01-1.85,1.89-4.39,2.94-7.03,2.9-2.64.04-5.17-1.01-7.01-2.9-1.89-1.83-2.94-4.37-2.9-7.01-.04-2.64,1.01-5.19,2.9-7.03,1.83-1.91,4.37-2.97,7.01-2.93"/>
      </g>
      <g id="Groupe_41" data-name="Groupe 41">
        <path id="Tracé_68" data-name="Tracé 68" class="cls-2" d="M375.48,494.11c2.65-.04,5.19,1.02,7.03,2.93,1.91,1.84,2.96,4.38,2.93,7.03.04,2.64-1.02,5.18-2.93,7.01-1.85,1.89-4.39,2.94-7.03,2.9-2.64.04-5.17-1.01-7.01-2.9-1.89-1.83-2.94-4.37-2.9-7.01-.04-2.64,1.01-5.19,2.9-7.03,1.83-1.91,4.37-2.97,7.01-2.93"/>
      </g>
    </g>
  </g>
  <rect id="Rectangle_17" data-name="Rectangle 17" class="cls-2" x="159.01" y="343.71" width="96.64" height="218.47" transform="matrix(1, 0, 0, 1, 1.4210854715202004e-14, 0)"/>
</svg>