<?xml version="1.0" encoding="utf-8"?>
<svg xmlns="http://www.w3.org/2000/svg" viewBox="101.61 113.01 103.6 132.62" width="103.6px" height="132.62px">
  <defs>
    <style>
      .cls-1 {
        fill: #fff;
      }
    </style>
  </defs>
  <g>
    <polygon class="cls-1" points="189.05 145.45 189.05 237.67 109.58 237.67 109.58 120.97 176.34 120.97 176.34 113.01 109.58 113.01 101.62 113.01 101.61 113.01 101.61 120.97 101.62 120.97 101.62 245.63 102.31 245.63 109.58 245.63 189.05 245.63 189.05 245.63 197.01 245.63 197.01 140.87 189.05 145.45"/>
    <path class="cls-1" d="M137.52,142.3l-8.93-.23h-2.04l-9.02.23v-2.59l9.07.23h1.9l9.02-.23v2.59ZM135.58,147.11l-1.94,1.94-6.15-6.48-1.57-1.57-6.43-6.11,1.94-1.94,6.15,6.43,1.53,1.57,6.48,6.15ZM135.53,134.85l-6.48,6.15-1.48,1.43-6.2,6.57-1.85-1.85,6.62-6.24,1.34-1.34,6.2-6.57,1.85,1.85ZM128.92,150.99h-2.78l.23-8.93v-2.22l-.23-8.84h2.78l-.23,8.88v2.17l.23,8.93Z"/>
    <path class="cls-1" d="M205.21,124.3l-8.93-.23h-2.04l-9.02.23v-2.59l9.07.23h1.9l9.02-.23v2.59ZM203.27,129.11l-1.94,1.94-6.15-6.48-1.57-1.57-6.43-6.11,1.94-1.94,6.15,6.43,1.53,1.57,6.48,6.15ZM203.22,116.85l-6.48,6.15-1.48,1.43-6.2,6.57-1.85-1.85,6.62-6.24,1.34-1.34,6.2-6.57,1.85,1.85ZM196.61,133h-2.78l.23-8.93v-2.22l-.23-8.84h2.78l-.23,8.88v2.17l.23,8.93Z"/>
    <polygon class="cls-1" points="141.94 155.33 121.34 184.47 121.34 225.68 162.54 225.68 162.54 184.47 141.94 155.33"/>
    <path class="cls-1" d="M176.36,137.76v-2.92c-4.99,0-8.94,1.55-11.86,4.65-2.92,3.1-4.38,7.18-4.38,12.22s1.46,9.12,4.38,12.23c2.92,3.1,6.87,4.65,11.86,4.65v-2.92c-3.04,0-5.47-1.37-7.3-4.11-1.82-2.74-2.74-6.02-2.74-9.85s.91-7.12,2.74-9.85c1.83-2.74,4.26-4.11,7.3-4.11Z"/>
  </g>
</svg>