<?xml version="1.0" encoding="utf-8"?>
<svg xmlns="http://www.w3.org/2000/svg" viewBox="-0.0602 0.1322 906.61 132" width="906.61px" height="132px">
  <defs>
    <style>
      .cls-1 {
        fill: #fff;
      }
    </style>
  </defs>
  <g transform="matrix(1, 0, 0, 1, -102.15016174316406, -113.18783569335938)">
    <g>
      <path class="cls-1" d="M114.08,243.38h-11.99v-75.45h11.99v75.45ZM107.63,199.47c0-9.59,2.24-17.56,6.73-23.89,4.49-6.33,10.54-9.5,18.17-9.5,8.24,0,14.76,2.4,19.55,7.19,4.8,4.8,7.19,11.38,7.19,19.74v50.36h-11.99v-47.6c0-12.42-5.23-18.63-15.68-18.63-5.29,0-9.53,2.24-12.73,6.73-3.2,4.49-4.8,9.68-4.8,15.59h-6.46ZM150.98,199.47c0-8.86,2.46-16.63,7.38-23.34,4.92-6.7,11.38-10.05,19.37-10.05s14.76,2.4,19.55,7.19c4.8,4.8,7.2,11.38,7.2,19.74v50.36h-11.99v-47.6c0-12.42-5.23-18.63-15.68-18.63-5.29,0-9.53,2.24-12.73,6.73-3.2,4.49-4.8,9.68-4.8,15.59h-8.3Z" style=""/>
      <path class="cls-1" d="M286.58,207.41h-58.67v-10.7h48.34l-2.03,9.04c0-7.75-1.84-14.42-5.53-20.02-3.69-5.59-8.61-8.39-14.76-8.39s-11.1,2.8-14.85,8.39c-3.75,5.6-5.63,12.27-5.63,20.02s1.87,14.39,5.63,19.93c3.75,5.53,8.7,8.3,14.85,8.3,4.18,0,8.02-1.35,11.53-4.06,3.51-2.7,6.12-6.21,7.84-10.52h12.55c-2.21,7.5-6.18,13.68-11.9,18.54-5.72,4.86-12.39,7.29-20.02,7.29-9.72,0-17.62-3.9-23.71-11.71-6.09-7.81-9.13-17.07-9.13-27.77s3.05-19.98,9.13-27.85c6.09-7.87,13.99-11.81,23.71-11.81s17.59,3.94,23.61,11.81c6.03,7.87,9.04,17.16,9.04,27.85v1.66Z" style=""/>
      <path class="cls-1" d="M316.09,243.38h-11.99V113.32h11.99v130.06Z" style=""/>
      <path class="cls-1" d="M347.45,243.38h-11.99V113.32h11.99v130.06ZM342.66,201.32l35.42-33.39h16.79l-44.09,41.88-.92-11.44,47.78,45.01h-17.9l-37.08-35.05v-7.01Z" style=""/>
    </g>
    <g>
      <path class="cls-1" d="M481.38,245.22c-7.99,0-14.73-2.33-20.2-7.01-5.47-4.67-8.21-10.76-8.21-18.26v-.56h11.99v.56c0,4.43,1.63,7.96,4.89,10.61,3.26,2.64,7.1,3.97,11.53,3.97s8.3-1.11,11.62-3.32c3.32-2.21,4.98-5.29,4.98-9.22,0-2.7-1.51-4.86-4.52-6.46-3.02-1.6-6.67-2.92-10.97-3.97-4.31-1.04-8.61-2.27-12.91-3.69-4.31-1.41-7.96-3.75-10.98-7.01-3.02-3.26-4.52-7.47-4.52-12.64,0-7.01,2.58-12.45,7.75-16.33,5.16-3.87,11.68-5.81,19.55-5.81,7.38,0,13.65,2.21,18.82,6.64,5.17,4.43,7.99,10.15,8.49,17.16h-12.18c-.74-3.69-2.37-6.79-4.89-9.32-2.52-2.52-5.94-3.78-10.24-3.78-4.67,0-8.33.99-10.98,2.95-2.64,1.97-3.97,4.8-3.97,8.49,0,2.71,1.51,4.86,4.52,6.46,3.01,1.6,6.67,2.92,10.97,3.97,4.3,1.05,8.61,2.28,12.91,3.69,4.3,1.41,7.96,3.75,10.98,7.01,3.01,3.26,4.52,7.47,4.52,12.64,0,7.38-2.77,13.1-8.3,17.16-5.53,4.06-12.42,6.09-20.66,6.09Z" style=""/>
      <path class="cls-1" d="M566.8,179h-45.2v-11.07h45.2v11.07ZM548.35,219.03c0,5.04.68,8.83,2.03,11.35,1.35,2.52,3.75,3.78,7.2,3.78s5.84-1.26,7.19-3.78c1.35-2.52,2.03-6.3,2.03-11.35h11.99v2.95c0,7.13-1.85,12.79-5.53,16.97-3.69,4.18-8.92,6.27-15.68,6.27s-11.99-2.09-15.68-6.27c-3.69-4.18-5.53-9.84-5.53-16.97v-90.03h11.99v87.08Z" style=""/>
      <path class="cls-1" d="M645.2,211.83c0,9.59-2.24,17.56-6.73,23.89-4.49,6.34-10.55,9.5-18.17,9.5-8.24,0-14.76-2.4-19.55-7.19-4.8-4.8-7.2-11.38-7.2-19.74v-50.36h11.99v47.6c0,12.42,5.22,18.63,15.68,18.63,5.28,0,9.53-2.24,12.73-6.73,3.2-4.49,4.8-9.69,4.8-15.59h6.46ZM638.75,167.93h11.99v75.45h-11.99v-75.45Z" style=""/>
      <path class="cls-1" d="M678.23,233.51c-6.03-7.81-9.04-17.07-9.04-27.77s3.01-19.98,9.04-27.85c6.02-7.87,13.9-11.81,23.61-11.81,6.39,0,11.72,2.09,15.96,6.27,4.24,4.18,7.2,9.13,8.86,14.85,1.66,5.72,2.49,11.9,2.49,18.54,0,4.92-.49,9.59-1.48,14.02-.99,4.43-2.49,8.61-4.52,12.54-2.03,3.94-4.89,7.07-8.58,9.41-3.69,2.34-7.93,3.51-12.73,3.51-9.72,0-17.59-3.9-23.61-11.71ZM681.73,205.74c0,7.75,1.81,14.36,5.44,19.83,3.63,5.47,8.52,8.21,14.67,8.21s11.07-2.73,14.76-8.21c3.69-5.47,5.53-12.08,5.53-19.83s-1.84-14.39-5.53-19.92c-3.69-5.53-8.61-8.3-14.76-8.3s-11.04,2.77-14.67,8.3c-3.63,5.53-5.44,12.18-5.44,19.92ZM722.13,113.32h11.99v130.06h-11.99V113.32Z" style=""/>
      <path class="cls-1" d="M768.25,144.87h-13.84v-13.83h13.84v13.83ZM767.33,243.38h-11.99v-75.45h11.99v75.45Z" style=""/>
      <path class="cls-1" d="M784.86,205.74c0-10.7,3.05-19.98,9.13-27.85,6.09-7.87,13.99-11.81,23.71-11.81s17.59,3.94,23.61,11.81c6.03,7.87,9.04,17.16,9.04,27.85s-3.02,19.96-9.04,27.77c-6.03,7.81-13.9,11.71-23.61,11.71s-17.62-3.9-23.71-11.71c-6.09-7.81-9.13-17.07-9.13-27.77ZM797.4,205.74c0,7.75,1.84,14.36,5.53,19.83,3.69,5.47,8.61,8.21,14.76,8.21s11.04-2.73,14.67-8.21c3.63-5.47,5.44-12.08,5.44-19.83s-1.82-14.39-5.44-19.92c-3.63-5.53-8.52-8.3-14.67-8.3s-11.07,2.77-14.76,8.3c-3.69,5.53-5.53,12.18-5.53,19.92Z" style=""/>
    </g>
    <g>
      <polygon class="cls-1" points="992.62 145.61 992.62 237.4 913.51 237.4 913.51 121.24 979.96 121.24 979.96 113.32 913.51 113.32 905.58 113.32 905.58 113.32 905.58 121.24 905.58 121.24 905.58 245.32 906.28 245.32 913.51 245.32 992.62 245.32 992.62 245.32 1000.53 245.32 1000.53 141.05 992.62 145.61" style=""/>
      <path class="cls-1" d="M941.32,142.47l-8.89-.23h-2.03l-8.98.23v-2.58l9.02.23h1.89l8.98-.23v2.58ZM939.39,147.26l-1.93,1.93-6.12-6.45-1.57-1.57-6.4-6.08,1.93-1.93,6.12,6.4,1.52,1.57,6.45,6.12ZM939.34,135.05l-6.45,6.12-1.47,1.43-6.17,6.54-1.84-1.84,6.58-6.22,1.34-1.34,6.17-6.54,1.84,1.84ZM932.76,151.12h-2.76l.23-8.89v-2.21l-.23-8.79h2.76l-.23,8.84v2.16l.23,8.89Z" style=""/>
      <path class="cls-1" d="M1008.7,124.55l-8.89-.23h-2.03l-8.98.23v-2.58l9.02.23h1.89l8.98-.23v2.58ZM1006.77,129.34l-1.93,1.93-6.12-6.45-1.57-1.57-6.4-6.08,1.93-1.93,6.12,6.4,1.52,1.57,6.45,6.12ZM1006.72,117.14l-6.45,6.12-1.47,1.43-6.17,6.54-1.84-1.84,6.58-6.22,1.34-1.34,6.17-6.54,1.84,1.84ZM1000.14,133.21h-2.76l.23-8.89v-2.21l-.23-8.79h2.76l-.23,8.84v2.16l.23,8.89Z" style=""/>
      <polygon class="cls-1" points="945.72 155.44 925.21 184.45 925.21 225.46 966.23 225.46 966.23 184.45 945.72 155.44" style=""/>
      <path class="cls-1" d="M979.98,137.95v-2.91c-4.96,0-8.9,1.54-11.81,4.63-2.91,3.09-4.36,7.14-4.36,12.17s1.45,9.08,4.36,12.17c2.91,3.09,6.84,4.63,11.81,4.63v-2.91c-3.03,0-5.45-1.36-7.26-4.09-1.82-2.72-2.72-5.99-2.72-9.81s.91-7.08,2.72-9.81c1.82-2.72,4.24-4.09,7.26-4.09Z" style=""/>
    </g>
  </g>
</svg>